<svg width="516" height="516" viewBox="0 0 516 516" fill="none" xmlns="http://www.w3.org/2000/svg">
<path fill-rule="evenodd" clip-rule="evenodd" d="M240 0.655018C191.271 5.32502 152.992 18.305 116.5 42.531C100.54 53.127 90.25 61.648 74.936 76.948C8.89899 142.926 -15.847 240.2 10.416 330.571C23.329 375.006 50.71 418.993 83.818 448.488C124.58 484.802 169.404 505.718 223.5 513.666C240.179 516.117 275.582 516.095 293.5 513.624C334.969 507.904 377.178 490.806 410.156 466.368C422.922 456.909 425.738 454.474 439.343 441.133C479.972 401.292 505.581 349.765 513.692 291.534C515.917 275.559 515.907 241.021 513.673 225C507.234 178.826 491.467 140.075 464.19 103.375C453.681 89.236 432.821 67.669 419 56.652C379.181 24.913 329.842 5.12703 280.75 1.21003C271 0.432026 271 0.432022 271 8.71602C271 13.272 271.34 17 271.756 17C272.172 17 278.26 17.672 285.286 18.494C339.265 24.808 388.019 48.151 426.887 86.29C467.072 125.721 492.487 178.617 498.074 234.452C499.572 249.42 498.783 279.57 496.503 294.5C484.607 372.395 434.584 440.273 363.5 474.977C341.731 485.605 318.874 492.734 293.86 496.699C276.215 499.496 235.896 499.233 218.999 496.21C166.687 486.851 122.971 464.317 87.374 428.361C51.163 391.787 28.654 348.134 19.894 297.5C17.238 282.144 16.208 248.05 17.944 232.943C23.472 184.847 41.818 141.309 72.068 104.5C79.503 95.453 97.557 77.6 106.5 70.452C139.647 43.958 181.665 25.382 221.5 19.612C227 18.816 234.819 17.851 238.876 17.468C246.252 16.772 246.252 16.772 245.634 11.636C245.295 8.81101 245.013 5.03802 245.009 3.25002C245.004 1.46302 244.663 0.0720229 244.25 0.160023C243.837 0.248023 241.925 0.471018 240 0.655018ZM253.877 113.139C246.343 118.484 224.794 141.082 218 150.76C212.606 158.445 203.873 173.076 202.734 176.338C202.573 176.799 198.404 176.006 193.471 174.576C177.777 170.026 167.848 168.694 149.5 168.677C133.881 168.663 114.972 170.663 111.718 172.674C111.061 173.081 110.924 178.096 111.329 186.901C115.439 276.059 174.708 329.614 249.75 311.977C257.913 310.058 258.087 310.058 266.25 311.976C312.738 322.899 354.519 306.82 380.787 267.897C395.11 246.674 405 211.024 405 180.617C405 173.155 405 173.155 401.75 172.149C394.257 169.828 382.504 168.642 367 168.64C349.21 168.639 338.347 170.092 322.634 174.573C317.758 175.964 313.649 176.967 313.503 176.801C313.357 176.635 311.857 173.746 310.17 170.38C303.332 156.738 292.886 142.761 279.563 129.43C272.378 122.241 264.645 114.936 262.377 113.196C258.254 110.033 258.254 110.033 253.877 113.139ZM268.489 139.411C279.682 150.806 289.638 163.848 295.01 174.153C297.205 178.362 299 182.238 299 182.768C299 183.297 295.288 185.875 290.75 188.496C280.567 194.378 274.623 198.643 265.157 206.86C257.815 213.235 257.815 213.235 253.657 209.243C247.116 202.963 232.752 192.465 224.52 187.947C220.384 185.677 217 183.343 217 182.761C217 180.355 226.468 164.59 232.954 156.199C240.543 146.379 256.263 130 258.098 130C258.729 130 263.404 134.235 268.489 139.411ZM174 185.594C178.675 186.409 185.8 188.035 189.834 189.208C196.296 191.088 197.11 191.588 196.677 193.421C193.357 207.486 192.715 212.681 192.717 225.5C192.72 241.111 194.535 250.134 200.037 261.893C205.961 274.553 216.976 287.216 229.256 295.486C234.273 298.865 234.287 298.89 231.6 299.564C227.221 300.663 206.004 299.358 199.5 297.589C191.03 295.286 176.606 288.12 169.263 282.567C147.548 266.145 132.031 236.004 128.042 202.5C126.225 187.237 126.161 186.019 127.14 185.414C129.04 184.239 145.749 183.201 155.5 183.652C161 183.906 169.325 184.78 174 185.594ZM386.5 184.901C389.466 185.623 389.496 185.698 389.166 191.565C387.855 214.821 378.84 243.542 367.687 260C355.521 277.951 336.083 292.193 316.5 297.503C309.879 299.298 288.777 300.663 284.447 299.576C281.714 298.89 281.731 298.863 287.098 295.3C290.069 293.328 296.431 287.725 301.236 282.849C308.703 275.272 310.69 272.497 314.914 263.742C317.632 258.109 320.672 249.9 321.67 245.5C324.165 234.498 323.944 213.874 321.198 201.5C319.518 193.927 319.419 192.327 320.573 191.41C323.16 189.355 344.063 184.856 354.281 184.156C365.532 183.385 381.819 183.762 386.5 184.901ZM219.032 206.206C216.711 207.191 213.478 208.948 211.848 210.108C210.218 211.269 208.656 211.99 208.377 211.71C208.097 211.431 208.303 209.469 208.834 207.351C209.365 205.233 210.083 202.243 210.43 200.707C211.06 197.914 211.06 197.914 217.156 201.164C223.252 204.413 223.252 204.413 219.032 206.206ZM305.861 202.75C307.654 209.915 308.035 212 307.554 212C307.287 212 304.941 210.65 302.339 209C299.737 207.35 297.048 206 296.363 206C293.446 206 294.304 204.02 298.253 201.639C303.918 198.223 304.759 198.346 305.861 202.75ZM241.995 220.615C244.523 221.626 248.25 224.709 251.971 228.865C257.911 235.5 257.911 235.5 264.206 228.791C271.308 221.22 275.604 219 283.152 219C296.7 219 307.524 231.602 305.694 245.243C303.62 260.709 284.52 281.514 262.635 292.147C257.981 294.408 257.981 294.408 252.358 291.649C234.821 283.049 221.656 270.899 214.524 256.733C210.391 248.524 209.389 242.713 210.97 236.124C212.427 230.052 217.851 223.427 223.444 220.886C228.48 218.599 236.658 218.479 241.995 220.615ZM211.5 340.403C206.997 342.39 205.067 345.055 198.5 358.352C192.5 370.5 192.5 370.5 153.161 371C113.822 371.5 113.822 371.5 111.911 373.861C109.705 376.586 109.537 378.262 111.163 381.316C113.634 385.954 113.451 385.935 154.282 385.968C203.739 386.009 200.96 386.954 211.176 366.622C214.458 360.089 217.493 355.139 217.919 355.622C218.346 356.105 221.996 364.6 226.03 374.5C240.529 410.077 242.088 412.884 248.539 415.013C255.758 417.395 263.435 413.864 266.987 406.527C268.23 403.959 273.151 392.851 277.923 381.842C282.694 370.833 286.967 361.843 287.418 361.863C287.869 361.883 292.414 371.793 297.518 383.884C302.622 395.975 307.805 407.66 309.036 409.85C312.11 415.32 316.3 417.418 322.889 416.785C330.096 416.092 332.809 413.157 339.986 398.286C345.916 386 345.916 386 373.503 386C401.091 386 401.091 386 403.545 383.545C406.545 380.546 406.677 377.13 403.927 373.635C401.855 371 401.855 371 372.378 371C340.889 371 339.983 371.126 335.331 376.155C334.138 377.445 330.642 383.646 327.563 389.935C324.483 396.224 321.808 401.525 321.618 401.715C321.428 401.905 319.428 397.659 317.174 392.28C299.497 350.101 299.688 350.469 293.8 347.405C287.818 344.293 278.337 346.753 274.969 352.291C273.982 353.914 268.793 365.335 263.437 377.671C258.081 390.006 253.354 399.739 252.932 399.3C252.511 398.86 247.552 387.25 241.912 373.5C236.273 359.75 230.551 346.99 229.198 345.144C225.089 339.541 217.847 337.601 211.5 340.403Z" fill="#0E3B35"/>
</svg>
